# xmcd
#
# Track frame offsets: 
#        150
#        13711
#        67970
#        78172
#        117100
#        153271
#        160242
#        184297
#        241172
#        267352
#
# Disc length: 3703 seconds
#
# Revision: 0
# Processed by: cddbd v1.5.2PL0 Copyright (c) Steve Scherf et al.
# Submitted via: ExactAudioCopy v0.99pb5
#
DISCID=740e750a
DTITLE=Charles Pennequin, François Pauvros - tuémonamour
DYEAR=2008
DGENRE=Poésie sonore
TTITLE0=Je ne veux pas
TTITLE1=La ville est un trou
TTITLE2=Quoi qui niaz
TTITLE3=La baise
TTITLE4=Je n'écris pas
TTITLE5=Tué mon amour
TTITLE6=On s'éteint on s'allume
TTITLE7=Nous sommes des chiens
TTITLE8=Slow bite
TTITLE9=Vidéo: Tué mon amour
EXTD=
EXTT0=
EXTT1=
EXTT2=
EXTT3=
EXTT4=
EXTT5=
EXTT6=
EXTT7=
EXTT8=
EXTT9=
PLAYORDER=
